# xmcd
#
# Track frame offsets: 
#        150
#        41282
#        61181
#        90014
#        111015
#        134132
#        156918
#        176810
#        208176
#        229525
#        252737
#        277452
#        300926
#        320235
#
# Disc length: 4613 seconds
#
# Revision: 2
# Processed by: cddbd v1.5.2PL0 Copyright (c) Steve Scherf et al.
# Submitted via: ExactAudioCopyFreeDBPlugin 1.0
#
DISCID=ca12030e
DTITLE=The Isley Brothers - Inside You and The Real Deal
DYEAR=1982
DGENRE=Soul
TTITLE0=Inside You (Parts I and II)
TTITLE1=Baby Hold On
TTITLE2=Don't Hold Back Your Love (Parts I and II)
TTITLE3=First Love
TTITLE4=Love Merry-Go-Round
TTITLE5=Welcome Into My Heart
TTITLE6=Love Zone
TTITLE7=The Real Deal (Part I and II)
TTITLE8=Are You With Me?
TTITLE9=Stone Cold Lover
TTITLE10=It's Alright With Me
TTITLE11=All In My Lover's Eyes
TTITLE12=I'll Do It All For You
TTITLE13=Under The Influence
EXTD=Isley Brothers - Inside you - The real deal\nInside you Track 1 t
EXTD=o 7 (1981]\nThe real deal Track 8 to 14 (1982)
EXTT0=
EXTT1=
EXTT2=
EXTT3=
EXTT4=
EXTT5=
EXTT6=
EXTT7=
EXTT8=
EXTT9=
EXTT10=
EXTT11=
EXTT12=
EXTT13=
PLAYORDER=
